PathFileType	4	(X/Y/Z)	Kaydara	
DataRate	CameraRate	NumFrames	NumMarkers	Units	OrigDataRate	OrigDataStartFrame	OrigNumFrames	
240.00	240.00	4	72	mm	240.00	180	359	
Frame#	Time	Hips			RightUpLeg			RightLeg			RightFoot			RightFoot_End			LeftUpLeg			LeftLeg			LeftFoot			LeftFoot_End			Spine			Spine1			Spine2			Spine3			Neck			Head			Head_End			RightShoulder			RightArm			RightForeArm			RightHand			RightHandThumb1			RightHandThumb2			RightHandThumb3			RightHandThumb3_End			RightInHandIndex			RightHandIndex1			RightHandIndex2			RightHandIndex3			RightHandIndex3_End			RightInHandMiddle			RightHandMiddle1			RightHandMiddle2			RightHandMiddle3			RightHandMiddle3_End			RightInHandRing			RightHandRing1			RightHandRing2			RightHandRing3			RightHandRing3_End			RightInHandPinky			RightHandPinky1			RightHandPinky2			RightHandPinky3			RightHandPinky3_End			LeftShoulder			LeftArm			LeftForeArm			LeftHand			LeftHandThumb1			LeftHandThumb2			LeftHandThumb3			LeftHandThumb3_End			LeftInHandIndex			LeftHandIndex1			LeftHandIndex2			LeftHandIndex3			LeftHandIndex3_End			LeftInHandMiddle			LeftHandMiddle1			LeftHandMiddle2			LeftHandMiddle3			LeftHandMiddle3_End			LeftInHandRing			LeftHandRing1			LeftHandRing2			LeftHandRing3			LeftHandRing3_End			LeftInHandPinky			LeftHandPinky1			LeftHandPinky2			LeftHandPinky3			LeftHandPinky3_End			
		X1	Y1	Z1	X2	Y2	Z2	X3	Y3	Z3	X4	Y4	Z4	X5	Y5	Z5	X6	Y6	Z6	X7	Y7	Z7	X8	Y8	Z8	X9	Y9	Z9	X10	Y10	Z10	X11	Y11	Z11	X12	Y12	Z12	X13	Y13	Z13	X14	Y14	Z14	X15	Y15	Z15	X16	Y16	Z16	X17	Y17	Z17	X18	Y18	Z18	X19	Y19	Z19	X20	Y20	Z20	X21	Y21	Z21	X22	Y22	Z22	X23	Y23	Z23	X24	Y24	Z24	X25	Y25	Z25	X26	Y26	Z26	X27	Y27	Z27	X28	Y28	Z28	X29	Y29	Z29	X30	Y30	Z30	X31	Y31	Z31	X32	Y32	Z32	X33	Y33	Z33	X34	Y34	Z34	X35	Y35	Z35	X36	Y36	Z36	X37	Y37	Z37	X38	Y38	Z38	X39	Y39	Z39	X40	Y40	Z40	X41	Y41	Z41	X42	Y42	Z42	X43	Y43	Z43	X44	Y44	Z44	X45	Y45	Z45	X46	Y46	Z46	X47	Y47	Z47	X48	Y48	Z48	X49	Y49	Z49	X50	Y50	Z50	X51	Y51	Z51	X52	Y52	Z52	X53	Y53	Z53	X54	Y54	Z54	X55	Y55	Z55	X56	Y56	Z56	X57	Y57	Z57	X58	Y58	Z58	X59	Y59	Z59	X60	Y60	Z60	X61	Y61	Z61	X62	Y62	Z62	X63	Y63	Z63	X64	Y64	Z64	X65	Y65	Z65	X66	Y66	Z66	X67	Y67	Z67	X68	Y68	Z68	X69	Y69	Z69	X70	Y70	Z70	X71	Y71	Z71	X72	Y72	Z72	

180	0.746	2198.941	914.58397	126.699	2251.752035096343	894.5155679389337	52.611734289096646	2155.965181929786	498.67083380514805	-45.43287884431386	2141.429559374738	107.28674456770153	-121.68645312498647	1990.0236976297715	30.5774030789221	-33.76563393946683	2160.17058687677	908.4009642867758	212.26169963388168	2068.515249652152	506.3357323110165	285.3517562342399	1992.973397529244	81.76416480469146	372.0705632789332	1871.6677961192297	-0.7625844059454531	249.54531369480682	2133.595870884532	1032.5492119628063	78.8251138207938	2072.515798594039	1088.9350107364617	28.561026638142696	2006.0651391146941	1140.680476290311	-27.49849326272586	1938.8779144621863	1178.9472930912148	-86.31371725620721	1865.9137141694619	1220.2617295640723	-147.49155439916274	1797.8404861953704	1258.337141389	-200.63471090937438	1659.6611603959727	1336.6491625331012	-212.10683238096797	1908.6029926885562	1203.900477820827	-150.76824662108535	1956.8268923630471	1173.8934082412322	-254.61505911374977	2007.0825981985208	940.1991714269371	-240.4660421543252	1992.8192106699432	819.167548085816	-392.60134658356867	1997.4445774464443	833.2380256185636	-410.64214115845596	1985.6696196149312	838.3442670172809	-429.6917331292549	1977.4083782883183	838.468402865514	-443.18834323986977	1970.4690246031982	835.6360251516166	-454.6370435357725	1999.393519945348	822.1700503660975	-413.43253864864806	2001.661219278392	814.2750654644307	-444.78536708545397	1993.9247392273728	809.0835548530171	-464.95332647468734	1983.8760346788658	809.4302763174545	-473.96515324544566	1972.0248967647565	812.1282201188172	-479.0454476426238	1998.7055239032127	813.1251453061425	-412.8896739484005	2000.547885759112	800.5321316948981	-443.1771166792586	1991.9960800222127	793.6996873997883	-465.0089826458392	1979.8199961106645	793.5577719005142	-475.79724119381365	1966.8270851392945	796.237470036423	-481.315078566653	1998.2562162236657	806.9093041781765	-411.73056986723236	1999.7941813904058	790.1484325694007	-437.93967483337315	1992.2242445120214	783.0201225502478	-456.74114029163997	1980.417755339312	782.2602447914088	-467.0265729843	1968.1719074019634	784.4846185268767	-472.1575289520336	1996.9271949854553	800.1872535792523	-409.2932713923583	1997.8367387870874	780.5767464176502	-431.92187508817165	1991.586407211437	773.1117420720761	-446.5083510030371	1982.8834672921128	771.7076048888622	-453.78369823727405	1971.9831323980982	773.1889254085473	-458.19831141031204	1871.6861749348611	1209.4304395586048	-102.4412360789489	1826.615189271075	1170.1354801166517	-0.5189273220560168	1931.8212659957594	999.7046686617834	-129.15543317174607	1989.5348129033966	871.48860289246	-300.4423643167213	2008.4935821044637	880.8040778147625	-314.2179328373364	2035.9217948686928	870.6092189621286	-323.22984105814857	2054.419252753955	860.436924458146	-330.2562959401655	2069.323463162263	849.328200918742	-336.7560300798732	2007.330837915494	871.7109580992732	-319.18201804142535	2035.4891317265528	856.0342797356432	-346.2327224550131	2059.029907417542	839.4274341639098	-359.6643476140131	2074.1374860672117	829.6949974450911	-362.3441148990522	2086.9605942130543	822.0387993464257	-360.73711980171674	2004.8967305082097	863.6288315101895	-320.02556591123533	2031.0437541910364	843.9682699565905	-346.8678260130198	2056.3238430409397	824.8242132612796	-361.5412269269519	2074.354991187104	812.591630594601	-364.78232444976624	2088.2907127536296	803.975791208724	-363.0278900355612	2002.4200796350779	858.35349796429	-319.9962920452368	2023.5907583766405	836.2557078898777	-344.2172209127408	2045.1676028029542	818.5549865610687	-356.9807886016533	2062.3171891439138	806.2168329908588	-360.0933563045329	2075.3051748999746	797.860426234233	-358.4372337237537	1999.0523579097962	852.4546298090812	-318.66642855495394	2016.2740185543	828.6612272744285	-340.2888737727585	2032.7463628171954	813.0002337365523	-350.36306822239067	2044.8656481567796	803.2814610191585	-352.5625703493653	2056.1466208109946	795.4650944480735	-351.0547611919755
181	0.75	2198.941	914.58397	126.699	2251.695171046885	894.4560618238058	52.5989083313736	2155.8970007004914	498.6242088972086	-45.484369159097916	2141.435112465141	107.24212727823597	-121.74978053977259	1990.0298180253103	30.533813839814297	-33.827079949666555	2160.2199570431053	908.4587336745491	212.27904530074576	2068.568880710863	506.38694122134586	285.33736515593466	1992.9832685034971	81.80755769861318	371.9656182893824	1871.6834107174905	-0.7254741457900966	249.43897820126548	2133.631850529366	1032.559826418116	78.80573596237414	2072.5657205928715	1088.9435389261782	28.522961537286154	2006.1287428978587	1140.6888977592598	-27.552677386768543	1938.9519498610575	1178.9614353022778	-86.3766102776583	1865.998676700087	1220.2816167263115	-147.56409686304747	1797.936889493626	1258.3646806672841	-200.71681938888952	1659.7848898764705	1336.7049237259494	-212.2703632244331	1908.6405566161045	1203.8426286914857	-150.82948945207727	1956.6015123641946	1173.4761591632332	-254.49050176967955	2006.319864479983	940.2313550367572	-239.44101540152832	1991.5983278422505	819.267746348168	-390.3662415777851	1996.1518741173895	833.3663222331486	-408.20258676720005	1984.4334633653125	838.4774016886879	-427.0520438138168	1976.2145942756174	838.605309026806	-440.41437769815286	1969.3131245333368	835.776419989379	-451.75549850819067	1998.0915626877506	822.305407611471	-410.9901550513865	2000.3044854592572	814.452466552606	-442.05526973420353	1992.601442242009	809.2739671437206	-462.03554254227276	1982.614612047322	809.6162674894796	-470.95574041752866	1970.8424044671544	812.3021166644977	-475.97709228357337	1997.4170168751052	813.2593598157592	-410.4717645548213	1999.2132056678006	800.7067401753432	-440.49181392489055	1990.699926930452	793.8881849516494	-462.12305770622527	1978.5994752513732	793.740788458978	-472.80277501383915	1965.6934046522751	796.4071817130992	-478.2570930136326	1996.9778910340185	807.0418115329804	-409.3371412683357	1998.4812141679251	790.3161783601512	-435.3274202764522	1990.947027183246	783.1995961438016	-453.9587160466074	1979.214641219102	782.434229805376	-464.1419438798494	1967.0509897487627	784.6459943170695	-469.2143590420309	1995.6678485814768	800.3151928489453	-406.93758728124055	1996.5548930213292	780.7347923617796	-429.38815393572594	1990.3367261883536	773.2784303710198	-443.8466436423904	1981.6895493415307	771.8699284654568	-451.05144518019557	1970.863011821436	773.3398732598847	-455.41650364633807	1871.8131875373706	1209.5260610091882	-102.51985869093997	1826.8859058736182	1170.688296433512	-0.5883403477409391	1931.5582884049782	999.9922261138812	-128.28448496722757	1988.5197775464856	871.4138295869186	-298.6809865960375	2007.2986809877916	880.7018863163115	-312.3797534509568	2034.521907134755	870.4917267855558	-321.3934466127993	2052.8819656890246	860.308903691795	-328.4156477708398	2067.676214906543	849.1915125942204	-334.9071341485122	2006.139846691533	871.6050084593628	-317.30565639844576	2034.0438382634775	855.88850759179	-344.209763284702	2057.401166481347	839.2630160065291	-357.60044456865614	2072.4065089831197	829.5269512605582	-360.3041346312786	2085.1529670392674	821.8731237093291	-358.75024573044345	2003.7288496335063	863.5250437192118	-318.1422598223377	2029.640336785635	843.8268078253016	-344.8377580434218	2054.7241120068184	824.6628311116378	-359.46611848742094	2072.6337729032616	812.4260766551243	-362.73590216468153	2086.486527605553	803.8129289216212	-361.03949058666825	2001.2750662953779	858.2521560667717	-318.11113422753925	2022.254654088937	836.1224344179345	-342.19692426417106	2043.6647141337578	818.4048465406768	-354.9211006608078	2060.6994102657463	806.0629305806953	-358.06126742512816	2073.6104729983103	797.7091793911276	-356.45966854571617	1997.9406714963995	852.3580406122583	-316.78878185434024	2015.0076959182852	828.5379349597544	-338.28956292291014	2031.3540621832567	812.8643471347445	-348.33260015216104	2043.393212858567	803.1432745822814	-350.5524208522921	2054.6081515863066	795.3295124491185	-349.0930176756467
182	0.754	2198.941	914.58397	126.699	2251.6362931122353	894.3960845348585	52.58476329736129	2155.8271202512337	498.5765824643504	-45.5353430771155	2141.4381654970066	107.19683587302376	-121.81403137036177	1990.0347500566552	30.486801695565514	-33.88957767832882	2160.2714106250482	908.5168739134785	212.29737370254438	2068.6282054466496	506.43503602983395	285.30990578129234	1992.9993550708107	81.84591750083194	371.83921504071355	1871.704694161849	-0.689592798741647	249.3091864910874	2133.6676138135936	1032.5709119152714	78.7879216011683	2072.614977674306	1088.9520106639393	28.486380261218617	2006.1916822284447	1140.6969679212768	-27.60566955057582	1939.0260394376667	1178.9753463495774	-86.43904098531769	1866.0844754926159	1220.3014815472166	-147.6369511069095	1798.0348605460251	1258.3924675540861	-200.79996976458415	1659.9116417846815	1336.763463614103	-212.4347233154376	1908.6789899289492	1203.7847918302818	-150.89045343333424	1956.3747840395351	1173.0592611554737	-254.36532695418614	2005.5631203674013	940.2708252124431	-238.41863257684204	1990.3849170023238	819.3884544963794	-388.12882806548225	1994.8772305709465	833.5086961138154	-405.7723636325946	1983.2235357606885	838.6173141183978	-424.4310977704636	1975.051841609548	838.7429480873024	-437.66446995954027	1968.191498454342	835.9116887229	-448.9013803390417	1996.8055702077868	822.4504343533574	-408.5537169154374	1998.972871651871	814.6210269260255	-439.33915619133404	1991.3089861453266	809.444652400219	-459.13735950673157	1981.3872452801743	809.7790779432067	-467.96982044834203	1969.6963973824656	812.4522088978275	-472.93572129169553	1996.1417067447753	813.4013687462749	-408.05614860033506	1997.8991575679752	800.8700765717222	-437.8146677351533	1989.4302524657433	794.0533475416561	-459.2509102549064	1977.4091199956845	793.8962155047373	-469.8265390362341	1964.592455751815	796.5485775824167	-475.2210405326253	1995.7105778401194	807.1812349856211	-406.94321421300054	1997.184030236518	790.4728949985297	-432.71747719398303	1989.6902742354905	783.3573674679694	-451.1829744699292	1978.0353260935171	782.5823242229354	-461.26801128984863	1965.9561782451558	784.7807588552445	-466.2852326212715	1994.4167086011892	800.4498040763235	-404.5780082288983	1995.283912026847	780.8827968860475	-426.8509989071496	1989.100988368957	773.4263627190529	-441.1841648965335	1980.51168344207	772.0103593425147	-448.320943846757	1969.7607992140126	773.468241482702	-452.6391817532324	1871.9404685166455	1209.621482437828	-102.5988725449514	1827.1587614502305	1171.2468373029233	-0.6571872857239874	1931.2976157715368	1000.2886746853542	-127.41287353045689	1987.4865694605367	871.3261499587653	-296.8935859391582	2006.0849906253566	880.5874471482114	-310.5153259484241	2033.101904596272	870.36244666881	-319.53189190614177	2051.32348559178	860.1694328472968	-326.55066045647743	2066.0067398048486	849.043673047766	-333.0346392063537	2004.9294528193136	871.4869798607978	-315.40313591330766	2032.5766612342632	855.7318207356965	-342.1611783539018	2055.7487876249256	839.0882840726987	-355.5119069160486	2070.6511092558435	829.3487422897547	-358.24038288314966	2083.320473374002	821.6972620594547	-356.7404809730527	2002.541226262925	863.4091786185671	-316.2329792648399	2028.214570836937	843.6744055696475	-342.782335597431	2053.1000817509043	824.4911588384152	-357.3667583662383	2070.887291280703	812.2504137592639	-360.66628104827856	2084.6565834336097	803.639931578127	-359.02886256422795	2000.1101305725456	858.138709757758	-316.20011389963054	2020.8961339570942	835.9780595937001	-340.1513993016492	2042.1376757057826	818.2441681135183	-352.8371685551834	2059.0565323067904	805.8986630568422	-356.00596305103517	2071.890200130345	797.5475391981665	-354.4598043418967	1996.8089369386	852.2492643263421	-314.88543050265326	2013.7189576517176	828.4033332879264	-336.26520656384673	2029.9379159347666	812.7175882215348	-346.2779085834246	2041.8962190836114	802.9943345738288	-348.51881415243196	2053.0446939953217	795.1831493579122	-347.1086367771919
183	0.758	2198.941	914.58397	126.699	2251.575626557605	894.3344962131996	52.569744953657874	2155.7510823571315	498.5288412548647	-45.58897642173831	2141.4341687951433	107.15280971797893	-121.88794967829187	1990.0341915830165	30.439230033130304	-33.96064722846295	2160.3244001724743	908.5764732120647	212.31652769078383	2068.688047476534	506.48308338278844	285.274049793554	1993.008988600494	81.88396856222543	371.69767438159494	1871.719262643723	-0.650704823891505	249.1623010469598	2133.704582021727	1032.5827544382792	78.77035950752929	2072.665348147393	1088.9609014761897	28.449756121983654	2006.255769338963	1140.7051688567055	-27.659026931846167	1939.1016519632346	1178.9896438851101	-86.50208175783342	1866.1721350320843	1220.3216968697063	-147.71083544925224	1798.1349587739346	1258.4203338936538	-200.884689423999	1660.040900652692	1336.8229075860254	-212.59750306001777	1908.7190241699782	1203.7266299000187	-150.95230937996462	1956.148799086339	1172.6425877371403	-254.239875944008	2004.8140712196168	940.3177445361002	-237.40084743123376	1989.184301381652	819.5206317586284	-385.89352452528755	1993.6289202949445	833.6528835823717	-403.3602587012091	1982.0500528311336	838.7491702858476	-421.84004160556657	1973.9313899627157	838.864436532062	-434.95089498981326	1967.1160407892648	836.0230136409757	-446.08746544268683	1995.5430699702458	822.5914177438283	-406.1306671419558	1997.6759513119364	814.7598780580162	-436.64674370527337	1990.0580979201025	809.5709331243953	-456.26954164522215	1980.2053154596292	809.8930747985099	-465.01875526217964	1968.5987550104676	812.5530225859587	-469.9331561677947	1994.8862272238746	813.5370549638055	-405.6487642302533	1996.6138858190586	801.0008249640762	-435.15302254746956	1988.1963360065324	794.1696754593057	-456.4008179865045	1976.2589382965032	793.9973847274097	-466.8774318835288	1963.534763121688	796.6351574673649	-472.21627423383535	1994.460228136282	807.3133397740492	-404.5536089251736	1995.909346524262	790.597750317474	-430.11496148255225	1988.461559551342	783.4689394484859	-448.41963170368217	1976.8880197233534	782.6788942941575	-458.41097842515495	1964.8961355913223	784.8634338575926	-463.37672620501246	1993.1788696426502	800.5770419505864	-402.21797749818484	1994.0290707177612	781.0007291365273	-424.3132863243047	1987.884947955796	773.5325741321797	-438.52393814850564	1979.3559866209873	772.10510517829	-445.59541114525337	1968.682957147207	773.5503739335375	-449.8697998908161	1872.0696542996404	1209.7179726079487	-102.67878163487178	1827.436552159987	1171.8182914179822	-0.7201980032811324	1931.0436036788128	1000.6010169893616	-126.53516215804112	1986.4405539784748	871.2287167087682	-295.0709760565058	2004.8573547725202	880.4651836557806	-308.61663394840934	2031.6667113629676	870.2269174362189	-317.63685412953674	2049.7488444620826	860.024625990372	-324.6527071883832	2064.3202045252024	848.8911002235865	-331.1295866901556	2003.7045825536907	871.3606509806614	-313.46636090711587	2031.0922761951454	855.5683489795279	-340.0795947255161	2054.077555921833	838.9077920387508	-353.3911167752453	2068.876272188618	829.1654259973383	-356.14469733838854	2081.4683526821636	821.5168444239391	-354.69894746994567	2001.3389481266559	863.2844604137432	-314.2893199926318	2026.7713882056842	843.5143267512581	-340.6936920765523	2051.4568261186623	824.3128515817117	-355.23496961780256	2069.120871759609	812.0688648039306	-358.56460616001016	2082.8064899903634	803.4616328534322	-356.9863583674369	1998.9304784132305	858.0159788204699	-314.2545968331597	2019.5203582066283	835.8250793128561	-338.072316220311	2040.5917957717	818.075709594311	-350.72034629847974	2057.394119911306	805.7272970026229	-353.91811772759525	2070.150193439331	797.3793300250802	-352.42755962381705	1995.662524903121	852.13066758489	-312.94739970748344	2012.413226591908	828.2592040822005	-334.20692311939496	2028.503499209259	812.5618330068907	-344.1897847218179	2040.3804463711745	802.8368299561093	-346.4520100988134	2051.462279472974	795.028656042413	-345.0911882551071
